<svg width="66" height="53" viewBox="0 0 66 53" fill="none" xmlns="http://www.w3.org/2000/svg">
<path d="M0.5 6.5293C0.5 2.92798 3.41484 0 7 0H36.25C39.8352 0 42.75 2.92798 42.75 6.5293V26.1172C42.75 29.7185 39.8352 32.6465 36.25 32.6465H21.0867L12.85 38.8493C12.3625 39.2166 11.7023 39.2778 11.1438 39.0024C10.5852 38.7269 10.25 38.1658 10.25 37.5435V32.6465H7C3.41484 32.6465 0.5 29.7185 0.5 26.1172V6.5293ZM26.5 35.9111H36.25C41.6328 35.9111 46 31.5243 46 26.1172V13.0586H59C62.5852 13.0586 65.5 15.9866 65.5 19.5879V39.1758C65.5 42.7771 62.5852 45.7051 59 45.7051H55.75V50.6021C55.75 51.2244 55.4047 51.7855 54.8563 52.061C54.3078 52.3364 53.6477 52.2752 53.15 51.9079L44.9133 45.7051H33C29.4148 45.7051 26.5 42.7771 26.5 39.1758V35.9111ZM14.3328 9.42668L14.2922 9.5287C13.9164 10.5897 14.475 11.7527 15.5312 12.1302C16.5875 12.5077 17.7453 11.9466 18.1211 10.8856L18.1617 10.7835C18.2531 10.5081 18.5172 10.3347 18.8016 10.3347H23.7273C24.4383 10.3347 25.007 10.9162 25.007 11.6201C25.007 12.0792 24.7633 12.5077 24.3672 12.7321L20.6094 14.9052C19.9797 15.2724 19.5938 15.9458 19.5938 16.6701V17.8127C19.5938 18.935 20.5078 19.8532 21.625 19.8532C22.732 19.8532 23.6359 18.9554 23.6562 17.8536L26.3883 16.2824C28.0437 15.3234 29.0695 13.5483 29.0695 11.6303C29.0695 8.66152 26.6727 6.26405 23.7273 6.26405H18.8016C16.7906 6.26405 15.0031 7.5291 14.3328 9.43688V9.42668ZM24.3367 25.301C24.3594 24.93 24.3061 24.5582 24.1804 24.2086C24.0546 23.859 23.8589 23.5389 23.6053 23.2681C23.3518 22.9973 23.0457 22.7816 22.706 22.6341C22.3663 22.4866 22.0002 22.4105 21.6301 22.4105C21.26 22.4105 20.8938 22.4866 20.5541 22.6341C20.2144 22.7816 19.9084 22.9973 19.6548 23.2681C19.4013 23.5389 19.2056 23.859 19.0798 24.2086C18.954 24.5582 18.9008 24.93 18.9234 25.301C18.9008 25.6721 18.954 26.0439 19.0798 26.3935C19.2056 26.7431 19.4013 27.0632 19.6548 27.3339C19.9084 27.6047 20.2144 27.8205 20.5541 27.968C20.8938 28.1155 21.26 28.1916 21.6301 28.1916C22.0002 28.1916 22.3663 28.1155 22.706 27.968C23.0457 27.8205 23.3518 27.6047 23.6053 27.3339C23.8589 27.0632 24.0546 26.7431 24.1804 26.3935C24.3061 26.0439 24.3594 25.6721 24.3367 25.301Z" fill="white"/>
</svg>
