<svg width="24" height="25" viewBox="0 0 24 25" fill="none" xmlns="http://www.w3.org/2000/svg">
<path d="M10 13.5C10.4295 14.0741 10.9774 14.5492 11.6066 14.8929C12.2357 15.2367 12.9315 15.4411 13.6467 15.4923C14.3618 15.5435 15.0796 15.4404 15.7513 15.1898C16.4231 14.9392 17.0331 14.5471 17.54 14.04L20.54 11.04C21.4508 10.097 21.9548 8.83397 21.9434 7.52299C21.932 6.21201 21.4061 4.95794 20.4791 4.0309C19.5521 3.10386 18.298 2.57802 16.987 2.56663C15.676 2.55523 14.413 3.05921 13.47 3.97L11.75 5.68" stroke="white" stroke-width="2" stroke-linecap="round" stroke-linejoin="round"/>
<path d="M14 11.5C13.5705 10.9259 13.0226 10.4508 12.3934 10.1071C11.7642 9.76331 11.0684 9.55889 10.3533 9.50768C9.63816 9.45646 8.92037 9.55964 8.24861 9.81023C7.57685 10.0608 6.96684 10.4529 6.45996 10.96L3.45996 13.96C2.54917 14.903 2.04519 16.166 2.05659 17.477C2.06798 18.788 2.59382 20.0421 3.52086 20.9691C4.4479 21.8961 5.70197 22.422 7.01295 22.4334C8.32393 22.4448 9.58694 21.9408 10.53 21.03L12.24 19.32" stroke="white" stroke-width="2" stroke-linecap="round" stroke-linejoin="round"/>
</svg>
