<?xml version="1.0" standalone="no"?>
<!DOCTYPE svg PUBLIC "-//W3C//DTD SVG 20010904//EN"
 "http://www.w3.org/TR/2001/REC-SVG-20010904/DTD/svg10.dtd">
<svg version="1.0" xmlns="http://www.w3.org/2000/svg"
 width="429.000000pt" height="429.000000pt" viewBox="0 0 429.000000 429.000000"
 preserveAspectRatio="xMidYMid meet">
<metadata>
Created by potrace 1.14, written by Peter Selinger 2001-2017
</metadata>
<g transform="translate(0.000000,429.000000) scale(0.100000,-0.100000)"
fill="#000000" stroke="none">
<path d="M2329 3737 c-25 -19 -101 -80 -113 -92 -6 -5 -40 -35 -76 -65 -36
-30 -67 -57 -70 -60 -3 -3 -48 -41 -100 -84 -52 -44 -103 -87 -112 -95 -9 -9
-31 -27 -48 -41 -17 -14 -54 -45 -82 -70 -27 -25 -59 -50 -69 -56 -11 -5 -16
-13 -13 -17 4 -4 3 -7 -3 -7 -5 0 -21 -9 -34 -21 -13 -11 -39 -33 -58 -47 -18
-15 -43 -36 -55 -47 -12 -11 -46 -40 -76 -65 -29 -25 -67 -57 -84 -71 -52 -45
-119 -102 -170 -144 -27 -22 -63 -52 -80 -67 -17 -16 -52 -45 -78 -65 -53 -43
-69 -69 -58 -98 17 -45 64 -60 120 -39 19 7 31 13 26 13 -6 1 11 14 36 30 25
16 54 36 64 44 39 32 114 87 119 87 3 0 13 8 23 18 11 9 30 25 43 34 13 9 98
71 188 138 90 67 169 124 177 127 8 3 11 9 8 14 -3 5 1 9 8 9 11 0 104 66 155
110 7 5 15 10 18 10 3 0 18 12 34 26 16 14 32 26 35 25 5 0 41 28 77 62 10 9
22 17 25 17 5 0 75 50 84 61 17 20 116 79 129 77 16 -3 58 -78 120 -218 19
-41 48 -104 66 -140 17 -36 33 -69 35 -75 2 -5 12 -30 23 -55 11 -25 20 -47
19 -50 0 -3 5 -12 12 -20 7 -8 19 -31 26 -50 8 -19 40 -90 72 -158 32 -68 58
-124 58 -126 0 -2 17 -39 37 -82 20 -43 37 -81 38 -84 0 -3 6 -21 13 -41 26
-75 38 -144 35 -199 -1 -25 -4 -72 -5 -105 -2 -33 -7 -66 -11 -72 -5 -8 -4
-13 2 -13 6 0 8 -6 5 -13 -2 -7 -6 -38 -8 -68 -1 -31 -6 -61 -10 -67 -4 -7 -2
-12 4 -12 6 0 8 -5 5 -11 -4 -6 -8 -48 -10 -93 -1 -46 -5 -88 -9 -94 -3 -6 -2
-13 4 -17 6 -4 7 -11 4 -17 -4 -5 -8 -35 -10 -66 -2 -32 -6 -63 -9 -69 -2 -7
0 -13 6 -13 6 0 7 -6 2 -12 -4 -7 -8 -29 -9 -48 -15 -293 -24 -422 -31 -434
-4 -5 0 -6 7 -1 9 6 11 4 5 -5 -4 -7 -10 -71 -12 -142 -5 -124 -4 -131 18
-154 25 -27 58 -31 97 -10 25 13 72 76 56 76 -3 0 -2 6 3 13 5 6 9 40 8 74 0
35 2 63 5 63 5 0 9 91 13 277 1 46 4 83 7 83 3 0 6 35 7 78 2 126 12 335 17
360 3 12 0 22 -6 22 -7 0 -7 4 -1 13 5 6 11 57 12 112 2 55 4 124 5 153 1 28
5 53 9 55 7 2 38 -44 71 -108 34 -64 60 -87 103 -91 33 -2 47 3 73 26 18 16
30 36 29 47 -2 10 -1 23 3 28 3 6 -6 35 -21 65 -15 30 -28 58 -29 62 -1 5 -14
34 -29 65 -30 64 -28 59 -38 91 -4 12 -11 22 -14 22 -4 0 -8 6 -8 13 0 6 -18
50 -41 97 -22 47 -52 112 -67 145 -15 33 -44 96 -66 140 -21 45 -39 86 -39 93
0 7 -5 12 -11 12 -5 0 -7 5 -4 10 3 6 1 10 -4 10 -6 0 -11 5 -11 10 0 22 -483
999 -519 1049 -21 30 -66 38 -92 18z"/>
<path d="M2016 2105 c-8 -9 -18 -32 -22 -51 -7 -38 0 -249 11 -299 11 -55 49
-170 57 -173 4 -2 8 -11 8 -21 0 -26 59 -130 80 -141 10 -6 25 -10 33 -10 25
0 224 220 199 220 -4 0 -2 4 3 8 19 12 62 94 85 162 13 36 27 70 32 76 5 6 6
19 2 28 -3 9 -2 16 3 16 10 0 9 57 -2 91 -17 52 -67 63 -125 28 -44 -27 -77
-63 -115 -128 -29 -49 -50 -65 -53 -38 -1 20 -7 41 -13 52 -4 6 -12 28 -19 50
-14 43 -56 113 -80 132 -21 17 -66 16 -84 -2z"/>
</g>
</svg>
