<?xml version="1.0" standalone="no"?>
<!DOCTYPE svg PUBLIC "-//W3C//DTD SVG 20010904//EN"
 "http://www.w3.org/TR/2001/REC-SVG-20010904/DTD/svg10.dtd">
<svg version="1.0" xmlns="http://www.w3.org/2000/svg"
 width="512.000000pt" height="512.000000pt" viewBox="0 0 512.000000 512.000000"
 preserveAspectRatio="xMidYMid meet">
<metadata>
Created by potrace 1.14, written by Peter Selinger 2001-2017
</metadata>
<g transform="translate(0.000000,512.000000) scale(0.100000,-0.100000)"
fill="#000000" stroke="none">
<path d="M2815 4413 c-11 -3 -25 -13 -32 -22 -7 -9 -13 -13 -13 -10 0 4 -26
-18 -57 -47 -32 -30 -61 -54 -64 -54 -3 0 -22 -15 -41 -32 -19 -18 -55 -49
-78 -68 -24 -19 -59 -50 -79 -69 -20 -19 -37 -33 -39 -32 -3 2 -19 -11 -61
-49 -59 -53 -82 -70 -92 -70 -5 0 -7 -4 -4 -10 3 -5 2 -10 -2 -10 -5 0 -21
-11 -36 -25 -15 -14 -27 -24 -27 -22 0 3 -21 -15 -47 -39 -27 -24 -55 -49 -63
-56 -9 -7 -43 -35 -75 -63 -33 -27 -66 -54 -73 -60 -7 -5 -23 -19 -35 -30 -12
-11 -47 -41 -77 -66 -30 -26 -67 -58 -82 -72 -16 -14 -28 -23 -28 -19 0 4 -11
-6 -25 -22 -14 -16 -25 -26 -25 -23 0 4 -16 -9 -35 -29 -19 -19 -35 -32 -35
-29 0 3 -11 -6 -25 -21 -14 -15 -25 -24 -25 -21 0 3 -17 -11 -39 -31 -21 -20
-55 -50 -75 -67 -21 -16 -46 -37 -55 -45 -10 -8 -37 -31 -61 -50 -99 -82 -130
-117 -130 -149 0 -32 29 -70 55 -72 54 -5 96 1 90 11 -3 6 0 10 7 10 8 0 43
21 78 48 35 26 82 60 104 76 23 16 43 32 44 37 2 5 10 9 18 9 8 0 14 3 14 8 0
4 18 18 40 32 22 14 40 28 40 32 0 5 6 8 14 8 8 0 16 7 20 15 3 8 10 15 16 15
10 0 37 20 72 53 10 9 21 18 26 19 4 1 12 5 17 10 6 4 24 19 41 33 18 14 35
25 40 25 4 0 14 7 23 15 31 30 121 97 121 90 0 -4 8 2 18 13 9 11 40 36 69 55
29 19 49 37 46 41 -4 3 -1 6 6 6 10 0 39 19 96 63 5 4 32 24 60 45 27 20 59
45 69 55 11 9 23 17 27 17 5 0 20 11 35 25 15 14 33 25 41 25 8 0 11 5 8 10
-3 6 1 10 9 10 9 0 16 5 16 10 0 6 5 10 11 10 7 0 20 10 30 22 11 11 19 17 19
12 0 -5 4 -4 8 1 13 19 111 89 128 91 9 1 18 5 21 8 10 10 50 -44 63 -85 7
-21 17 -39 23 -39 5 0 7 -6 4 -14 -3 -8 0 -19 7 -25 7 -6 19 -29 26 -51 7 -22
17 -40 22 -40 5 0 7 -4 3 -9 -3 -5 -1 -12 5 -16 5 -3 10 -15 10 -25 0 -10 8
-24 18 -29 9 -6 14 -11 9 -11 -4 0 1 -17 12 -39 11 -21 18 -41 15 -43 -2 -3 2
-11 11 -18 8 -7 15 -16 15 -20 0 -4 12 -34 27 -66 15 -33 27 -61 28 -64 0 -3
9 -19 18 -37 9 -18 17 -39 17 -48 0 -8 5 -15 10 -15 6 0 10 -5 10 -11 0 -10
18 -50 95 -214 18 -38 34 -74 36 -80 1 -5 15 -35 30 -65 26 -53 61 -130 63
-140 1 -3 8 -16 16 -30 7 -14 13 -27 13 -30 -1 -6 2 -15 16 -65 7 -22 14 -49
16 -60 2 -11 4 -20 6 -20 1 0 3 -39 4 -87 2 -49 0 -86 -4 -83 -4 2 -8 -2 -8
-10 0 -8 5 -15 10 -15 5 0 6 -8 2 -17 -4 -10 -8 -53 -11 -96 -2 -43 -6 -82 -9
-88 -4 -5 0 -9 7 -9 8 0 9 -3 3 -8 -6 -4 -11 -32 -12 -62 -1 -30 -4 -91 -7
-135 -3 -44 -8 -129 -11 -190 -3 -60 -8 -141 -11 -180 -2 -38 -6 -97 -8 -131
-1 -33 -6 -66 -10 -72 -4 -7 -2 -12 4 -12 8 0 8 -6 0 -20 -8 -14 -8 -20 0 -20
7 0 8 -5 3 -12 -11 -18 -11 -31 1 -47 8 -11 8 -13 0 -8 -7 4 -12 -11 -13 -46
-1 -29 -4 -86 -7 -127 -2 -41 -6 -147 -9 -236 -5 -157 -5 -161 17 -181 13 -12
26 -22 31 -22 4 -1 10 -1 15 -2 27 -4 67 5 83 19 53 45 71 116 73 285 0 26 5
47 11 47 5 0 3 5 -5 10 -13 9 -13 10 0 10 9 0 11 3 5 8 -11 8 -16 42 -6 42 3
0 6 37 6 83 0 45 1 86 4 91 2 5 5 37 6 70 1 34 6 138 10 231 5 94 9 184 9 200
1 17 5 33 11 37 7 5 6 8 -1 8 -5 0 -9 14 -7 33 2 17 5 64 6 102 1 39 6 76 11
84 6 8 5 12 0 8 -5 -3 -9 14 -9 39 0 24 2 44 5 44 3 0 5 39 4 88 0 48 2 91 4
95 2 5 35 -43 73 -105 38 -62 77 -119 86 -125 23 -17 88 -16 122 2 16 8 34 28
41 45 14 35 7 103 -16 138 -8 12 -12 22 -10 22 2 0 -12 33 -31 73 -19 39 -36
77 -38 82 -1 6 -14 35 -28 65 -15 30 -27 61 -27 68 0 6 -4 12 -10 12 -5 0 -10
6 -10 13 0 7 -9 30 -20 52 -11 22 -20 45 -20 52 0 7 -4 13 -10 13 -5 0 -10 5
-10 10 0 6 -18 50 -41 98 -22 48 -41 92 -42 97 -1 6 -5 12 -8 15 -6 4 -70 141
-70 147 0 2 -21 47 -48 100 -27 54 -55 113 -62 131 -8 17 -17 32 -21 32 -5 0
-8 4 -8 9 0 5 -9 30 -20 55 -11 26 -19 49 -19 53 0 3 -3 9 -8 12 -8 5 -55 95
-59 111 -3 15 -20 48 -36 73 -11 15 -17 27 -14 27 4 0 -6 19 -21 43 -14 23
-26 43 -25 44 3 7 -24 63 -30 63 -4 0 -8 5 -8 10 0 13 -95 207 -110 225 -5 6
-7 15 -3 18 3 4 2 7 -4 7 -6 0 -14 12 -18 27 -3 15 -10 30 -13 33 -4 3 -27 46
-52 95 -24 50 -48 93 -53 96 -5 3 -9 10 -9 15 -1 17 -34 51 -53 56 -11 3 -29
3 -40 1z"/>
<path d="M2433 2502 c-30 -19 -43 -91 -38 -215 3 -67 5 -130 6 -140 0 -9 3
-16 7 -13 4 2 7 -8 8 -22 1 -72 41 -203 96 -316 22 -43 46 -85 54 -94 20 -19
66 -20 88 -1 39 34 86 80 86 85 0 2 12 18 28 33 35 37 41 45 84 111 41 63 108
197 108 217 0 7 5 13 12 13 6 0 9 3 5 6 -3 3 1 25 9 47 17 48 25 155 12 163
-4 3 -6 9 -3 13 2 5 -7 19 -20 31 -14 13 -25 20 -25 16 0 -5 -6 -3 -14 3 -11
9 -15 9 -19 -1 -4 -9 -6 -9 -6 -1 -2 28 -151 -78 -151 -107 0 -6 -4 -10 -10
-10 -5 0 -10 -7 -10 -15 0 -8 -5 -15 -11 -15 -5 0 -8 -4 -4 -9 3 -6 0 -13 -7
-18 -7 -4 -19 -20 -27 -35 -8 -15 -18 -25 -22 -22 -4 2 -15 30 -24 62 -21 72
-78 183 -112 216 -26 26 -74 35 -100 18z"/>
</g>
</svg>
