<svg width="63" height="52" viewBox="0 0 63 52" fill="none" xmlns="http://www.w3.org/2000/svg">
<path d="M54.25 25.3V25.6366L61.3289 18.5261C63.5531 16.292 63.5531 12.6806 61.3289 10.4465L53.3969 2.48921C51.1727 0.255062 47.5773 0.255062 45.3531 2.48921L41.2805 6.58005C41.0062 6.54944 40.7219 6.52904 40.4375 6.52904H29.0625C25.2945 6.52904 22.1969 9.38549 21.7906 13.0581H21.75V25.3C21.75 27.5545 23.568 29.3806 25.8125 29.3806C28.057 29.3806 29.875 27.5545 29.875 25.3V17.9548V17.9446V16.3226H31.5H45.3125C45.3125 16.3226 45.3125 16.3226 45.3227 16.3226H46.125C50.6141 16.3226 54.25 19.9747 54.25 24.4838V25.3ZM33.125 19.5871V25.3C33.125 29.3602 29.8547 32.6451 25.8125 32.6451C21.7703 32.6451 18.5 29.3602 18.5 25.3V13.2009C14.8539 13.8334 11.8172 16.496 10.7812 20.1584L9.10547 26.0345L1.67109 33.502C-0.553125 35.7362 -0.553125 39.3476 1.67109 41.5817L9.60313 49.5491C11.8273 51.7833 15.4227 51.7833 17.6469 49.5491L21.4758 45.7031C21.5672 45.7031 21.6586 45.7133 21.75 45.7133H38C40.6914 45.7133 42.875 43.52 42.875 40.8166C42.875 40.2453 42.7734 39.6944 42.6008 39.1843H42.875C45.5664 39.1843 47.75 36.991 47.75 34.2876C47.75 32.9818 47.2422 31.7984 46.4094 30.921C49.0195 30.411 50.9898 28.1054 51 25.3306V25.2898C50.9898 22.1477 48.4508 19.5973 45.3125 19.5973H33.125V19.5871Z" fill="white"/>
</svg>
