<svg width="66" height="53" viewBox="0 0 66 53" fill="none" xmlns="http://www.w3.org/2000/svg">
<path d="M5.87153 28.709L26.263 47.463C27.1094 48.2412 28.2266 48.6748 29.3889 48.6748C30.5512 48.6748 31.6684 48.2412 32.5148 47.463L32.8082 47.1962C30.6528 44.0724 29.3889 40.2927 29.3889 36.224C29.3889 25.4184 38.2812 16.6584 49.25 16.6584C52.4436 16.6584 55.4566 17.4032 58.1311 18.715C58.2326 17.9924 58.2778 17.2698 58.2778 16.5361V15.8914C58.2778 8.12072 52.579 1.49511 44.8038 0.216678C39.658 -0.628198 34.4219 1.0282 30.7431 4.65228L29.3889 5.98629L28.0347 4.65228C24.3559 1.0282 19.1198 -0.628198 13.974 0.216678C6.19878 1.49511 0.5 8.12072 0.5 15.8914V16.5361C0.5 21.1496 2.44097 25.563 5.87153 28.709ZM65.5 36.224C65.5 31.9783 63.788 27.9066 60.7405 24.9045C57.693 21.9024 53.5598 20.2158 49.25 20.2158C44.9402 20.2158 40.807 21.9024 37.7595 24.9045C34.7121 27.9066 33 31.9783 33 36.224C33 40.4696 34.7121 44.5413 37.7595 47.5435C40.807 50.5456 44.9402 52.2321 49.25 52.2321C53.5598 52.2321 57.693 50.5456 60.7405 47.5435C63.788 44.5413 65.5 40.4696 65.5 36.224ZM56.8446 31.4104C57.5443 32.0996 57.5443 33.2335 56.8446 33.9228L48.7196 41.9269C48.02 42.6161 46.8689 42.6161 46.1693 41.9269L41.6554 37.4802C40.9557 36.7909 40.9557 35.657 41.6554 34.9678C42.355 34.2785 43.5061 34.2785 44.2057 34.9678L47.4444 38.1583L54.2943 31.4104C54.9939 30.7212 56.145 30.7212 56.8446 31.4104Z" fill="white"/>
</svg>
